<svg width="362" height="181" viewBox="0 0 362 181" fill="none" xmlns="http://www.w3.org/2000/svg">
<ellipse cx="89" cy="61.5" rx="9" ry="7.5" fill="#C4C4C4"/>
<circle cx="89" cy="96" r="9" fill="#C4C4C4"/>
<path d="M32.7488 134.205C19.3869 121.068 13.1255 79.5724 38.4049 60.6067C41.6512 58.1723 43.1257 53.8131 41.7365 49.935C40.581 46.7052 37.929 44.9983 33.9152 44.6784C28.094 44.2113 22.4571 46.9599 18.8725 51.707C0.16533 76.4587 -3.11117 100.678 5.5794 124.47C15.1173 150.595 36.9166 169.809 63.1837 176.719C87.9431 183.23 116.862 181.313 138.164 159.344C150.065 147.07 157.016 130.684 158.521 113.411C158.839 109.74 158.998 106.033 159 102.289C159 82.021 154.114 62.0929 145.344 43.9396C137.11 26.9073 128.595 11.6243 119.126 2.25187C118.713 1.83304 118.22 1.50615 117.678 1.29146C117.137 1.07677 116.558 0.978857 115.978 1.00381C115.398 1.02876 114.829 1.17603 114.307 1.43649C113.785 1.69695 113.32 2.06505 112.942 2.51795C109.283 7.01593 106.859 13.1925 106.656 22.3866C97.9514 23.3887 89.8468 25.4608 82.4465 28.7755C79.657 23.5614 75.3873 19.3436 70.2786 15.6892C69.8339 15.3746 69.3234 15.1723 68.7885 15.0989C68.2535 15.0255 67.7093 15.0829 67.2 15.2666C66.6908 15.4503 66.2308 15.755 65.8575 16.156C65.4842 16.557 65.2081 17.043 65.0516 17.5744C61.0158 31.275 61.6018 68.578 70.6445 81.8115C57.9154 82.1285 57.2111 89.5591 59.467 97.7851C56.306 98.0824 52.9525 101.536 49.5302 106.09C49.5962 99.2118 48.6278 92.7267 46.1381 86.8218C44.5508 83.0598 40.8616 80.5773 36.9001 81.0359C30.5094 81.7775 29.4062 89.4176 35.8685 94.5893C34.3031 106.402 24.3663 110.883 32.7488 134.205Z" fill="#FF9B54" stroke="black" stroke-width="0.417939" stroke-miterlimit="10"/>
<path d="M115.498 132C124.315 126.405 126.974 114.754 127 100.519L122.805 102.522L119.21 104.687L115.498 105.176L111.468 103.814L109.107 100.983L108.575 97.0165L111.002 91.5142L115.077 87.7854L120.251 85.7825L123.601 85.4887L125.859 85.6594C116.724 54.2453 89.1156 50.4549 80 88.2553L84.2009 90.4372L87.0052 94.4906L88.7458 101.959L88.7885 107.193L88.086 113.364L87.611 115.904L87.1787 116.757L90.677 116.033L95.4297 116.164L99.1896 117.003L104.813 119.801L107.114 121.569L110.751 125.258L115.498 132Z" fill="white"/>
<path d="M75.8976 96C66.3934 106.728 54.4733 112.322 49.4586 122.008C43.3605 134.64 57.5884 151.239 69.8475 147.451L73.1817 144.973L75.6965 142.557L77.7973 139.908L79.6309 136.144L80 132.856L79.5979 131.126L78.2384 128.868L75.6875 126.59L73.9619 124.045L73.0616 121.355L72.6325 117.976L73.0046 112.567L74.5291 107.763L75.8646 105.409V101.412L75.8976 96Z" fill="white"/>
<path d="M109.013 57C110.657 55.0586 113.385 53.451 116.602 53.1059C120.235 52.6794 123.89 53.5969 127 54.8596C125.451 54.3855 123.853 53.9994 122.219 53.705C116.742 52.7381 112.485 53.8548 109 57H109.013Z" fill="black"/>
<path d="M90.9945 61.4789C86.5536 58.2112 81.1971 55.7703 76.6957 60.1063C75.2953 61.4612 74.049 63.1114 73 65C73.8939 62.9021 75.0658 61.0695 76.451 59.6033C80.9688 54.8344 86.7708 57.3105 91 61.4789H90.9945Z" fill="black"/>
<path d="M95 67.0236C100.556 70.7118 102.336 67.6394 102.576 61C106.095 66.4111 109.362 68.6548 113 61.8483C110.062 68.7727 106.137 67.469 102.59 62.0514L103.08 61.8713C103.019 63.092 102.842 64.3008 102.552 65.4743C101.283 70.3875 97.8526 69.4343 95 67.0236Z" fill="black"/>
<path d="M133.981 88.1489C129.738 85.9318 124.749 84.601 119.975 85.7333C115.343 86.7916 111.171 90.2549 109.893 94.7711C108.82 98.3243 110.133 101.915 113.932 103.113C115.057 103.496 116.253 103.642 117.441 103.542C118.633 103.419 119.787 103.064 120.834 102.497C121.924 101.952 122.765 101.068 123.831 100.459C124.877 99.827 126.048 99.4146 127.268 99.2487C128.488 99.0828 129.731 99.1672 130.915 99.4964C129.132 99.0799 127.26 99.2055 125.553 99.8562C124.997 100.082 124.463 100.358 123.959 100.679C122.926 101.314 122.087 102.219 121.005 102.796C119.381 103.733 117.49 104.14 115.61 103.957C113.746 103.719 111.896 102.991 110.629 101.576C107.177 97.5729 109.749 91.6359 113.354 88.5934C119.196 83.4289 127.678 84.3311 134 88.1436L133.981 88.1489Z" fill="black"/>
<path d="M120 138.439C114.028 126.189 104.86 114.693 89.8223 117.807L89.482 117.875C90.4387 113.143 91.0859 108.305 90.7679 103.49C90.528 100.031 89.8111 96.4423 87.8837 93.5109C86.0065 90.5514 82.531 88.7685 79.0974 89.9085C78.0514 90.265 76.9496 90.7508 76.2299 91.6156C75.5162 92.4857 75.1608 93.5981 75.2369 94.7239C75.5259 97.0805 75.6638 99.4533 75.6498 101.828C75.5867 104.235 75.3339 106.632 74.8938 108.999C72.8548 111.147 72.3472 116.928 72.5285 119.837C72.707 123.075 73.6442 126.576 76.3973 128.525C76.7739 128.828 77.1238 129.163 77.4433 129.527C80.3553 132.678 79.4488 136.971 77.2592 140.236C75.1588 143.432 72.2189 146.004 69 148C73.3764 145.161 78.5004 140.365 79.0137 134.871C79.2089 132.624 78.1546 130.443 76.4614 129.002C76.0347 128.643 75.4796 128.247 75.0919 127.851C73.0138 125.765 72.3026 122.707 72.1101 119.863C71.94 116.513 72.2635 113.031 73.6498 109.945C73.8591 109.482 74.148 109.06 74.5033 108.699L74.428 108.842C74.6121 107.671 74.8018 106.508 74.9273 105.338C75.2249 102.41 75.2155 99.4582 74.8994 96.5322C74.8436 95.9397 74.7655 95.3781 74.7125 94.7576C74.5536 92.4215 75.9426 90.5262 78.082 89.7035C83.5575 87.328 88.2017 91.318 89.9227 96.4423C92.2602 103.232 91.3676 110.723 90.0064 117.628L89.7275 117.347C105.035 114.351 114.12 125.891 119.992 138.439H120Z" fill="black"/>
<path d="M66 96C64.9213 98.6269 63.7199 100 62.5 100C61.2801 100 60.0787 98.6269 59 96C61.3116 98.0788 63.6884 98.0788 66 96Z" fill="black"/>
<path d="M183.305 8.33792H189.168V42.3823H197.158V47H183.305V8.33792ZM208.023 47.3395C206.68 47.3395 205.488 47.0905 204.447 46.5926C203.421 46.0946 202.553 45.3174 201.844 44.2611C201.134 43.2047 200.599 41.8541 200.236 40.2092C199.874 38.5493 199.693 36.5573 199.693 34.2334V28.348C199.693 26.3712 199.837 24.681 200.123 23.2776C200.425 21.8591 200.81 20.6745 201.278 19.7238C201.761 18.758 202.311 17.9959 202.93 17.4375C203.564 16.8792 204.213 16.4567 204.877 16.1699C205.541 15.8681 206.197 15.6795 206.846 15.604C207.51 15.5135 208.121 15.4682 208.68 15.4682C209.706 15.4682 210.694 15.6267 211.645 15.9436C212.596 16.2454 213.433 16.7736 214.158 17.5281C214.882 18.2675 215.455 19.2635 215.878 20.516C216.315 21.7685 216.534 23.3304 216.534 25.2017C216.534 25.8355 216.512 26.4768 216.466 27.1257C216.436 27.7746 216.391 28.4159 216.331 29.0497C216.27 29.6685 216.187 30.2721 216.082 30.8606C215.991 31.4492 215.893 31.9924 215.787 32.4904H205.443V35.6594C205.443 37.0176 205.496 38.1645 205.601 39.1001C205.707 40.0206 205.88 40.7676 206.122 41.341C206.378 41.8994 206.718 42.3068 207.14 42.5634C207.578 42.8048 208.121 42.9255 208.77 42.9255C209.117 42.9255 209.457 42.8576 209.789 42.7218C210.121 42.5709 210.408 42.3295 210.649 41.9975C210.906 41.6655 211.109 41.2279 211.26 40.6846C211.411 40.1262 211.487 39.4396 211.487 38.6247V37.6514H216.263V38.8511C216.263 41.8088 215.553 43.9668 214.135 45.3249C212.731 46.668 210.694 47.3395 208.023 47.3395ZM211.192 28.6423C211.207 28.4763 211.222 28.2575 211.238 27.9859C211.253 27.6991 211.26 27.4049 211.26 27.1031C211.275 26.8013 211.283 26.507 211.283 26.2203C211.283 25.9185 211.283 25.6619 211.283 25.4506C211.283 23.3983 211.041 21.9194 210.558 21.014C210.076 20.1086 209.359 19.6559 208.408 19.6559C207.91 19.6559 207.472 19.7766 207.095 20.018C206.718 20.2444 206.409 20.6367 206.167 21.1951C205.926 21.7384 205.745 22.4627 205.624 23.3681C205.503 24.2736 205.443 25.3978 205.443 26.7409V28.6423H211.192ZM221.378 15.8304H225.815L226.313 19.1579V19.1805C226.766 18.4712 227.249 17.8827 227.762 17.4149C228.275 16.932 228.803 16.5472 229.346 16.2605C229.905 15.9738 230.47 15.77 231.044 15.6493C231.632 15.5286 232.213 15.4682 232.787 15.4682C234.009 15.4682 235.043 15.7625 235.888 16.351C236.733 16.9396 237.374 17.8224 237.812 18.9994C238.265 18.3203 238.74 17.7544 239.238 17.3017C239.751 16.849 240.279 16.4868 240.823 16.2152C241.366 15.9436 241.917 15.7549 242.475 15.6493C243.033 15.5286 243.599 15.4682 244.173 15.4682C245.984 15.4682 247.379 16.1096 248.36 17.3923C249.356 18.6599 249.854 20.5688 249.854 23.1191V47H244.127V23.3229C244.127 22.6438 244.075 22.0704 243.969 21.6025C243.863 21.1347 243.705 20.7575 243.494 20.4708C243.282 20.184 243.011 19.9803 242.679 19.8596C242.347 19.7238 241.947 19.6559 241.479 19.6559C240.951 19.6559 240.423 19.852 239.895 20.2444C239.366 20.6217 238.883 21.1498 238.446 21.8289C238.461 21.9647 238.468 22.1005 238.468 22.2364C238.468 22.3722 238.468 22.508 238.468 22.6438V47H232.742V23.3229C232.742 22.6438 232.689 22.0704 232.583 21.6025C232.478 21.1347 232.319 20.7575 232.108 20.4708C231.897 20.184 231.625 19.9803 231.293 19.8596C230.961 19.7238 230.561 19.6559 230.093 19.6559C229.58 19.6559 229.059 19.8445 228.531 20.2218C228.003 20.599 227.528 21.1196 227.105 21.7836V47H221.378V15.8304ZM255.785 5.82534H261.512V14.1327L261.331 18.2524L261.353 18.2751C261.61 17.9129 261.904 17.5658 262.236 17.2338C262.583 16.9018 262.968 16.6076 263.391 16.351C263.828 16.0794 264.304 15.8681 264.817 15.7172C265.345 15.5663 265.918 15.4909 266.537 15.4909C266.854 15.4909 267.231 15.521 267.669 15.5814C268.121 15.6418 268.582 15.7927 269.05 16.0341C269.532 16.2756 270.008 16.6377 270.476 17.1206C270.959 17.5885 271.381 18.2373 271.743 19.0673C272.12 19.8973 272.422 20.931 272.649 22.1684C272.89 23.4059 273.011 24.9074 273.011 26.673V36.1121C273.011 37.8777 272.89 39.3793 272.649 40.6167C272.422 41.8541 272.12 42.8954 271.743 43.7404C271.366 44.5704 270.936 45.2269 270.453 45.7098C269.97 46.1927 269.48 46.5548 268.982 46.7963C268.484 47.0377 268.001 47.1886 267.533 47.249C267.065 47.3244 266.658 47.3622 266.311 47.3622C265.586 47.3622 264.93 47.2716 264.341 47.0905C263.768 46.9095 263.255 46.668 262.802 46.3662C262.364 46.0493 261.972 45.6947 261.625 45.3023C261.293 44.91 260.999 44.5101 260.742 44.1026L260.267 47H255.785V5.82534ZM261.512 40.6846C261.633 40.9713 261.776 41.2505 261.942 41.5221C262.123 41.7937 262.327 42.0352 262.553 42.2465C262.779 42.4426 263.043 42.6086 263.345 42.7445C263.647 42.8652 263.987 42.9255 264.364 42.9255C264.786 42.9255 265.171 42.8501 265.518 42.6992C265.865 42.5332 266.167 42.2465 266.424 41.839C266.68 41.4165 266.876 40.8355 267.012 40.0961C267.163 39.3566 267.239 38.4059 267.239 37.2439V25.3148C267.239 24.1529 267.163 23.2097 267.012 22.4853C266.876 21.7459 266.68 21.1649 266.424 20.7424C266.182 20.3198 265.888 20.0331 265.541 19.8822C265.194 19.7313 264.809 19.6559 264.387 19.6559C263.677 19.6559 263.089 19.8671 262.621 20.2897C262.168 20.6971 261.799 21.1876 261.512 21.761V40.6846ZM278.194 15.8304H282.382L282.88 18.9994C283.514 17.8224 284.238 16.9396 285.053 16.351C285.883 15.7625 286.728 15.4682 287.588 15.4682C289.233 15.4682 290.448 15.9738 291.233 16.9848C292.017 17.9959 292.41 19.5125 292.41 21.5346C292.41 21.7912 292.387 22.1005 292.342 22.4627C292.312 22.8098 292.259 23.1795 292.183 23.5719C292.123 23.9491 292.04 24.3339 291.934 24.7263C291.844 25.1036 291.746 25.4506 291.64 25.7675H287.656V22.8702C287.656 22.2364 287.611 21.7157 287.52 21.3083C287.445 20.9008 287.339 20.5764 287.204 20.3349C287.068 20.0784 286.909 19.9049 286.728 19.8143C286.547 19.7087 286.351 19.6559 286.14 19.6559C285.687 19.6559 285.264 19.8068 284.872 20.1086C284.495 20.3953 284.178 20.8027 283.921 21.3309V47H278.194V15.8304ZM300.332 47.3395C299.367 47.3395 298.506 47.1509 297.752 46.7736C297.012 46.3813 296.386 45.8531 295.873 45.1891C295.36 44.5251 294.968 43.7404 294.696 42.835C294.439 41.9145 294.311 40.9185 294.311 39.8471C294.311 38.5644 294.47 37.425 294.787 36.429C295.103 35.4331 295.564 34.5352 296.167 33.7354C296.786 32.9356 297.548 32.2112 298.454 31.5623C299.359 30.8983 300.408 30.2721 301.6 29.6836C302.173 29.3968 302.815 29.1101 303.524 28.8234C304.248 28.5216 304.89 28.265 305.448 28.0538V23.934C305.448 23.3304 305.425 22.7721 305.38 22.259C305.335 21.7308 305.222 21.2781 305.041 20.9008C304.875 20.5085 304.618 20.2067 304.271 19.9954C303.924 19.769 303.449 19.6559 302.845 19.6559C302.437 19.6559 302.038 19.7313 301.645 19.8822C301.268 20.0331 300.928 20.2897 300.627 20.6518C300.34 21.014 300.106 21.4969 299.925 22.1005C299.759 22.7042 299.676 23.4511 299.676 24.3415V25.6996H295.307C295.171 25.1111 295.066 24.5754 294.99 24.0925C294.93 23.5945 294.9 23.1041 294.9 22.6212C294.9 21.4592 295.096 20.433 295.488 19.5427C295.896 18.6523 296.454 17.9054 297.163 17.3017C297.888 16.6981 298.748 16.2454 299.744 15.9436C300.74 15.6267 301.834 15.4682 303.026 15.4682C304.58 15.4682 305.871 15.6418 306.897 15.9888C307.923 16.3208 308.738 16.8264 309.341 17.5055C309.96 18.1845 310.39 19.0371 310.632 20.0633C310.888 21.0895 311.016 22.2892 311.016 23.6624V47H306.761L306.353 44.329C305.735 45.2193 304.905 45.9437 303.864 46.502C302.837 47.0604 301.66 47.3395 300.332 47.3395ZM302.868 42.9255C303.35 42.9255 303.818 42.8048 304.271 42.5634C304.739 42.3068 305.131 41.9975 305.448 41.6353V31.8792C305.146 32 304.807 32.1433 304.429 32.3093C304.052 32.4753 303.645 32.6941 303.207 32.9658C302.8 33.2223 302.4 33.5317 302.007 33.8938C301.615 34.256 301.26 34.6861 300.943 35.1841C300.642 35.6821 300.393 36.248 300.197 36.8818C300.015 37.5005 299.925 38.1946 299.925 38.9643C299.925 40.1564 300.159 41.1147 300.627 41.839C301.094 42.5634 301.841 42.9255 302.868 42.9255ZM184.23 53.5125H192.024C193.202 53.5125 194.419 53.5512 195.675 53.6284C196.95 53.6864 198.186 53.8892 199.384 54.2369C200.6 54.5846 201.74 55.1254 202.802 55.8594C203.884 56.5741 204.831 57.5882 205.642 58.9017C206.453 60.1959 207.091 61.8377 207.554 63.8273C208.037 65.7975 208.279 68.212 208.279 71.0707V85.4418C208.279 88.3006 208.037 90.7247 207.554 92.7143C207.091 94.7038 206.453 96.3457 205.642 97.6398C204.831 98.934 203.884 99.9481 202.802 100.682C201.74 101.397 200.6 101.928 199.384 102.276C198.186 102.623 196.95 102.836 195.675 102.913C194.419 102.971 193.202 103 192.024 103H184.23V53.5125ZM193.647 97.7557C194.999 97.7557 196.11 97.5819 196.979 97.2342C197.867 96.8865 198.563 96.2781 199.065 95.4088C199.586 94.5203 199.944 93.3227 200.137 91.8161C200.33 90.2901 200.427 88.3682 200.427 86.0503V70.6941C200.427 68.3762 200.33 66.4639 200.137 64.9572C199.944 63.4313 199.586 62.2337 199.065 61.3645C198.563 60.4759 197.867 59.8578 196.979 59.5101C196.11 59.1625 194.999 58.9886 193.647 58.9886H191.734V97.7557H193.647ZM220.042 103.435C218.806 103.435 217.705 103.193 216.739 102.71C215.792 102.208 214.991 101.532 214.334 100.682C213.677 99.8322 213.175 98.8278 212.827 97.6688C212.499 96.4905 212.335 95.2157 212.335 93.8442C212.335 92.2024 212.538 90.744 212.943 89.4692C213.349 88.1943 213.938 87.045 214.711 86.0213C215.503 84.9975 216.478 84.0704 217.637 83.2398C218.796 82.3899 220.139 81.5883 221.665 80.8349C222.399 80.4679 223.219 80.1009 224.127 79.7339C225.054 79.3476 225.875 79.0193 226.59 78.7488V73.4756C226.59 72.7029 226.561 71.9882 226.503 71.3315C226.445 70.6554 226.3 70.076 226.069 69.5931C225.856 69.0909 225.528 68.7045 225.083 68.4341C224.639 68.1444 224.031 67.9995 223.258 67.9995C222.737 67.9995 222.225 68.0961 221.722 68.2892C221.24 68.4824 220.805 68.8108 220.419 69.2744C220.052 69.7379 219.752 70.356 219.52 71.1287C219.308 71.9013 219.202 72.8575 219.202 73.9971V75.7355H213.61C213.436 74.9822 213.301 74.2965 213.204 73.6784C213.127 73.041 213.088 72.4132 213.088 71.7951C213.088 70.3078 213.339 68.9943 213.842 67.8546C214.363 66.715 215.078 65.7589 215.986 64.9862C216.913 64.2136 218.014 63.6341 219.289 63.2478C220.563 62.8421 221.964 62.6393 223.49 62.6393C225.479 62.6393 227.131 62.8615 228.444 63.3057C229.758 63.7307 230.801 64.3778 231.574 65.247C232.366 66.1162 232.916 67.2075 233.225 68.521C233.553 69.8345 233.718 71.3701 233.718 73.1279V103H228.271L227.749 99.5811C226.957 100.721 225.895 101.648 224.562 102.363C223.248 103.077 221.742 103.435 220.042 103.435ZM223.287 97.7847C223.905 97.7847 224.504 97.6302 225.083 97.3211C225.682 96.9927 226.184 96.5968 226.59 96.1332V83.6454C226.204 83.7999 225.769 83.9834 225.286 84.1959C224.803 84.4084 224.282 84.6885 223.722 85.0362C223.2 85.3645 222.688 85.7605 222.186 86.2241C221.684 86.6877 221.23 87.2382 220.824 87.8756C220.438 88.513 220.119 89.2374 219.868 90.0487C219.636 90.8406 219.52 91.7291 219.52 92.7143C219.52 94.2402 219.82 95.4668 220.419 96.3939C221.017 97.3211 221.974 97.7847 223.287 97.7847ZM248.958 103.435C248.514 103.435 247.992 103.386 247.393 103.29C246.795 103.212 246.176 103.019 245.539 102.71C244.902 102.401 244.274 101.938 243.656 101.32C243.038 100.701 242.487 99.8612 242.004 98.7988C241.521 97.7364 241.125 96.4133 240.816 94.8294C240.527 93.2454 240.382 91.3235 240.382 89.0635V76.9814C240.382 74.7215 240.527 72.7995 240.816 71.2156C241.125 69.6317 241.512 68.3086 241.975 67.2462C242.458 66.1838 242.999 65.3532 243.598 64.7544C244.216 64.1363 244.824 63.6727 245.423 63.3637C246.041 63.0546 246.63 62.8615 247.191 62.7842C247.77 62.7069 248.263 62.6683 248.668 62.6683C249.615 62.6683 250.465 62.8035 251.218 63.0739C251.971 63.3444 252.647 63.7017 253.246 64.146C253.845 64.5709 254.366 65.0635 254.811 65.6236C255.274 66.1645 255.67 66.7053 255.999 67.2462L256.694 63.1029H262.402V115.922H255.1V105.289L255.303 100.421C254.646 101.252 253.806 101.967 252.782 102.565C251.759 103.145 250.484 103.435 248.958 103.435ZM251.45 97.7847C251.933 97.7847 252.358 97.7074 252.725 97.5529C253.111 97.3791 253.449 97.1666 253.739 96.9155C254.048 96.6451 254.308 96.336 254.521 95.9883C254.753 95.6406 254.946 95.2833 255.1 94.9163V70.9259C254.733 70.1146 254.241 69.4289 253.623 68.8687C253.024 68.2892 252.29 67.9995 251.421 67.9995C250.88 67.9995 250.387 68.1057 249.943 68.3182C249.499 68.5114 249.112 68.8784 248.784 69.4192C248.456 69.9408 248.195 70.6748 248.002 71.6212C247.828 72.5677 247.741 73.7846 247.741 75.272V90.5122C247.741 91.9996 247.828 93.2165 248.002 94.163C248.195 95.1094 248.456 95.8531 248.784 96.3939C249.112 96.9155 249.499 97.2825 249.943 97.495C250.407 97.6881 250.909 97.7847 251.45 97.7847ZM269.993 63.1029H277.323V93.0909C277.323 94.8487 277.594 96.0752 278.135 96.7706C278.676 97.4467 279.467 97.7847 280.511 97.7847C281.245 97.7847 281.959 97.5819 282.655 97.1762C283.35 96.7706 283.978 96.1911 284.538 95.4378V63.1029H291.868V103H286.276L285.552 98.7408H285.523C284.944 99.6487 284.325 100.412 283.669 101.03C283.031 101.629 282.355 102.111 281.641 102.478C280.945 102.826 280.23 103.077 279.496 103.232C278.762 103.386 278.028 103.464 277.294 103.464C274.957 103.464 273.151 102.652 271.876 101.03C270.621 99.4072 269.993 96.9541 269.993 93.6704V63.1029ZM309.166 103.435C307.447 103.435 305.921 103.116 304.588 102.478C303.274 101.841 302.164 100.846 301.256 99.4942C300.348 98.142 299.662 96.4133 299.199 94.3078C298.735 92.1831 298.503 89.6334 298.503 86.6587V79.1255C298.503 76.5951 298.687 74.4317 299.054 72.6353C299.44 70.8196 299.933 69.3033 300.532 68.0864C301.15 66.8502 301.855 65.8747 302.647 65.1601C303.458 64.4454 304.288 63.9045 305.138 63.5375C305.988 63.1512 306.829 62.9097 307.659 62.8132C308.509 62.6973 309.291 62.6393 310.006 62.6393C311.319 62.6393 312.585 62.8421 313.802 63.2478C315.018 63.6341 316.091 64.3102 317.018 65.276C317.945 66.2224 318.679 67.4973 319.22 69.1005C319.78 70.7037 320.06 72.7029 320.06 75.0981C320.06 75.9094 320.031 76.7303 319.973 77.5609C319.934 78.3915 319.876 79.2124 319.799 80.0237C319.722 80.8156 319.616 81.5883 319.48 82.3416C319.365 83.0949 319.239 83.7903 319.104 84.4277H305.863V88.4841C305.863 90.2225 305.93 91.6905 306.066 92.8881C306.201 94.0664 306.423 95.0225 306.732 95.7565C307.06 96.4712 307.495 96.9927 308.036 97.3211C308.596 97.6302 309.291 97.7847 310.122 97.7847C310.566 97.7847 311.001 97.6978 311.426 97.5239C311.851 97.3308 312.218 97.0217 312.527 96.5968C312.855 96.1718 313.116 95.6116 313.309 94.9163C313.502 94.2016 313.599 93.3227 313.599 92.2796V91.0338H319.712V92.5694C319.712 96.3553 318.804 99.1175 316.989 100.856C315.192 102.575 312.585 103.435 309.166 103.435ZM313.222 79.5021C313.241 79.2897 313.261 79.0096 313.28 78.6619C313.299 78.2949 313.309 77.9182 313.309 77.5319C313.328 77.1456 313.338 76.7689 313.338 76.4019C313.338 76.0156 313.338 75.6872 313.338 75.4168C313.338 72.7899 313.029 70.8969 312.411 69.7379C311.793 68.579 310.875 67.9995 309.658 67.9995C309.021 67.9995 308.461 68.154 307.978 68.4631C307.495 68.7528 307.099 69.255 306.79 69.9697C306.481 70.6651 306.249 71.5923 306.095 72.7512C305.94 73.9102 305.863 75.3492 305.863 77.0683V79.5021H313.222ZM326.376 50.2964H333.707V103H326.376V50.2964ZM351.004 103.435C349.285 103.435 347.759 103.116 346.426 102.478C345.113 101.841 344.002 100.846 343.094 99.4942C342.186 98.142 341.501 96.4133 341.037 94.3078C340.573 92.1831 340.342 89.6334 340.342 86.6587V79.1255C340.342 76.5951 340.525 74.4317 340.892 72.6353C341.279 70.8196 341.771 69.3033 342.37 68.0864C342.988 66.8502 343.693 65.8747 344.485 65.1601C345.296 64.4454 346.127 63.9045 346.977 63.5375C347.827 63.1512 348.667 62.9097 349.497 62.8132C350.347 62.6973 351.13 62.6393 351.844 62.6393C353.158 62.6393 354.423 62.8421 355.64 63.2478C356.857 63.6341 357.929 64.3102 358.856 65.276C359.783 66.2224 360.517 67.4973 361.058 69.1005C361.618 70.7037 361.898 72.7029 361.898 75.0981C361.898 75.9094 361.869 76.7303 361.811 77.5609C361.773 78.3915 361.715 79.2124 361.638 80.0237C361.56 80.8156 361.454 81.5883 361.319 82.3416C361.203 83.0949 361.077 83.7903 360.942 84.4277H347.701V88.4841C347.701 90.2225 347.769 91.6905 347.904 92.8881C348.039 94.0664 348.261 95.0225 348.57 95.7565C348.899 96.4712 349.333 96.9927 349.874 97.3211C350.434 97.6302 351.13 97.7847 351.96 97.7847C352.404 97.7847 352.839 97.6978 353.264 97.5239C353.689 97.3308 354.056 97.0217 354.365 96.5968C354.693 96.1718 354.954 95.6116 355.147 94.9163C355.341 94.2016 355.437 93.3227 355.437 92.2796V91.0338H361.551V92.5694C361.551 96.3553 360.643 99.1175 358.827 100.856C357.031 102.575 354.423 103.435 351.004 103.435ZM355.06 79.5021C355.08 79.2897 355.099 79.0096 355.118 78.6619C355.138 78.2949 355.147 77.9182 355.147 77.5319C355.167 77.1456 355.176 76.7689 355.176 76.4019C355.176 76.0156 355.176 75.6872 355.176 75.4168C355.176 72.7899 354.867 70.8969 354.249 69.7379C353.631 68.579 352.714 67.9995 351.497 67.9995C350.859 67.9995 350.299 68.154 349.816 68.4631C349.333 68.7528 348.937 69.255 348.628 69.9697C348.319 70.6651 348.087 71.5923 347.933 72.7512C347.778 73.9102 347.701 75.3492 347.701 77.0683V79.5021H355.06ZM183.305 121.338H198.086V125.956H189.168V137.523H196.162V142.14H189.168V160H183.305V121.338ZM204.696 124.371C203.639 124.371 202.802 124.054 202.183 123.42C201.58 122.787 201.278 121.859 201.278 120.636C201.278 119.957 201.353 119.391 201.504 118.939C201.67 118.471 201.896 118.101 202.183 117.829C202.485 117.543 202.847 117.339 203.27 117.218C203.692 117.082 204.175 117.014 204.718 117.014C205.85 117.014 206.71 117.301 207.299 117.875C207.887 118.448 208.182 119.369 208.182 120.636C208.182 121.813 207.88 122.734 207.276 123.398C206.688 124.047 205.828 124.371 204.696 124.371ZM201.73 128.83H207.457V160H201.73V128.83ZM213.546 118.825H219.273V160H213.546V118.825ZM225.272 128.83H229.708L230.206 132.158V132.181C230.659 131.471 231.142 130.883 231.655 130.415C232.168 129.932 232.696 129.547 233.24 129.26C233.798 128.974 234.364 128.77 234.937 128.649C235.526 128.529 236.107 128.468 236.68 128.468C237.903 128.468 238.936 128.762 239.781 129.351C240.626 129.94 241.268 130.822 241.705 131.999C242.158 131.32 242.633 130.754 243.131 130.302C243.645 129.849 244.173 129.487 244.716 129.215C245.259 128.944 245.81 128.755 246.368 128.649C246.927 128.529 247.493 128.468 248.066 128.468C249.877 128.468 251.273 129.11 252.254 130.392C253.25 131.66 253.748 133.569 253.748 136.119V160H248.021V136.323C248.021 135.644 247.968 135.07 247.862 134.603C247.757 134.135 247.598 133.757 247.387 133.471C247.176 133.184 246.904 132.98 246.572 132.86C246.24 132.724 245.84 132.656 245.372 132.656C244.844 132.656 244.316 132.852 243.788 133.244C243.26 133.622 242.777 134.15 242.339 134.829C242.354 134.965 242.362 135.101 242.362 135.236C242.362 135.372 242.362 135.508 242.362 135.644V160H236.635V136.323C236.635 135.644 236.582 135.07 236.477 134.603C236.371 134.135 236.212 133.757 236.001 133.471C235.79 133.184 235.518 132.98 235.186 132.86C234.854 132.724 234.454 132.656 233.987 132.656C233.473 132.656 232.953 132.844 232.425 133.222C231.897 133.599 231.421 134.12 230.999 134.784V160H225.272V128.83ZM267.193 160.34C265.85 160.34 264.658 160.091 263.617 159.593C262.591 159.095 261.723 158.317 261.014 157.261C260.305 156.205 259.769 154.854 259.407 153.209C259.044 151.549 258.863 149.557 258.863 147.233V141.348C258.863 139.371 259.007 137.681 259.293 136.278C259.595 134.859 259.98 133.674 260.448 132.724C260.931 131.758 261.482 130.996 262.1 130.438C262.734 129.879 263.383 129.457 264.047 129.17C264.711 128.868 265.367 128.679 266.016 128.604C266.68 128.513 267.291 128.468 267.85 128.468C268.876 128.468 269.864 128.627 270.815 128.944C271.766 129.245 272.603 129.774 273.328 130.528C274.052 131.268 274.626 132.264 275.048 133.516C275.486 134.769 275.704 136.33 275.704 138.202C275.704 138.835 275.682 139.477 275.637 140.126C275.606 140.775 275.561 141.416 275.501 142.05C275.44 142.668 275.357 143.272 275.252 143.861C275.161 144.449 275.063 144.992 274.958 145.49H264.613V148.659C264.613 150.018 264.666 151.164 264.771 152.1C264.877 153.021 265.051 153.768 265.292 154.341C265.549 154.899 265.888 155.307 266.311 155.563C266.748 155.805 267.291 155.926 267.94 155.926C268.287 155.926 268.627 155.858 268.959 155.722C269.291 155.571 269.578 155.329 269.819 154.997C270.076 154.665 270.279 154.228 270.43 153.685C270.581 153.126 270.657 152.44 270.657 151.625V150.651H275.433V151.851C275.433 154.809 274.724 156.967 273.305 158.325C271.902 159.668 269.864 160.34 267.193 160.34ZM270.362 141.642C270.378 141.476 270.393 141.257 270.408 140.986C270.423 140.699 270.43 140.405 270.43 140.103C270.445 139.801 270.453 139.507 270.453 139.22C270.453 138.918 270.453 138.662 270.453 138.451C270.453 136.398 270.212 134.919 269.729 134.014C269.246 133.109 268.529 132.656 267.578 132.656C267.08 132.656 266.643 132.777 266.265 133.018C265.888 133.244 265.579 133.637 265.337 134.195C265.096 134.738 264.915 135.463 264.794 136.368C264.673 137.274 264.613 138.398 264.613 139.741V141.642H270.362ZM286.479 142.797C286.479 142.193 286.494 141.672 286.524 141.235C286.555 140.782 286.615 140.352 286.706 139.945C286.811 139.537 286.962 139.13 287.158 138.722C287.354 138.3 287.619 137.824 287.95 137.296L290.622 133.086C291.195 132.15 291.648 131.185 291.98 130.189C292.312 129.193 292.478 128.272 292.478 127.427C292.478 126.808 292.395 126.242 292.229 125.729C292.063 125.216 291.829 124.779 291.527 124.416C291.225 124.054 290.848 123.775 290.395 123.579C289.958 123.368 289.467 123.262 288.924 123.262C287.702 123.262 286.804 123.805 286.23 124.892C285.657 125.978 285.37 127.548 285.37 129.6V131.456H280.752C280.586 130.611 280.443 129.841 280.322 129.147C280.201 128.438 280.141 127.668 280.141 126.838C280.141 125.692 280.315 124.62 280.662 123.624C281.009 122.628 281.552 121.76 282.292 121.021C283.031 120.282 283.967 119.701 285.098 119.278C286.23 118.856 287.581 118.644 289.15 118.644C290.705 118.644 292.063 118.856 293.225 119.278C294.402 119.686 295.383 120.274 296.167 121.044C296.952 121.813 297.533 122.741 297.91 123.828C298.303 124.899 298.499 126.099 298.499 127.427C298.499 128.182 298.431 128.906 298.295 129.6C298.159 130.279 297.948 130.966 297.661 131.66C297.375 132.339 297.02 133.041 296.597 133.765C296.175 134.474 295.669 135.221 295.081 136.006L293.27 138.451C292.832 139.039 292.493 139.545 292.251 139.967C292.01 140.39 291.829 140.805 291.708 141.212C291.602 141.62 291.535 142.05 291.504 142.502C291.474 142.955 291.459 143.498 291.459 144.132V147.392H286.457L286.479 142.797ZM285.755 155.993C285.755 154.409 286.072 153.277 286.706 152.598C287.339 151.904 288.199 151.557 289.286 151.557C290.418 151.557 291.293 151.919 291.912 152.643C292.53 153.368 292.84 154.484 292.84 155.993C292.84 157.367 292.523 158.431 291.889 159.185C291.27 159.94 290.395 160.317 289.263 160.317C288.192 160.317 287.339 159.955 286.706 159.23C286.072 158.491 285.755 157.412 285.755 155.993Z" fill="white"/>
</svg>
