<svg width="594" height="565" viewBox="0 0 594 565" fill="none" xmlns="http://www.w3.org/2000/svg">
<path d="M132.664 412.484C91.3118 372.963 71.9341 248.133 150.168 191.078C160.215 183.755 164.778 170.64 160.479 158.974C156.903 149.258 148.696 144.123 136.274 143.161C118.258 141.755 100.813 150.024 89.7197 164.305C31.8251 238.765 21.685 311.625 48.5804 383.199C78.0982 461.79 145.562 519.594 226.853 540.38C303.478 559.966 392.977 554.201 458.9 488.111C495.731 451.188 517.246 401.891 521.903 349.928C522.885 338.886 523.379 327.734 523.384 316.471C523.384 255.499 508.264 195.549 481.121 140.938C455.639 89.6994 429.288 43.7236 399.984 15.5283C398.703 14.2684 397.178 13.285 395.502 12.6391C393.826 11.9933 392.035 11.6987 390.24 11.7738C388.446 11.8488 386.686 12.2919 385.069 13.0754C383.453 13.859 382.015 14.9663 380.844 16.3288C369.521 29.8601 362.02 48.4412 361.39 76.1C334.452 79.1145 309.37 85.3479 286.468 95.3197C277.835 79.634 264.621 66.9457 248.811 55.952C247.434 55.0055 245.854 54.3971 244.199 54.1762C242.543 53.9553 240.859 54.1282 239.283 54.6808C237.707 55.2334 236.283 56.1501 235.128 57.3564C233.973 58.5627 233.118 60.0247 232.634 61.6234C220.144 102.839 221.958 215.058 249.943 254.868C210.549 255.822 208.37 278.176 215.351 302.922C205.568 303.816 195.19 314.205 184.599 327.907C184.803 307.214 181.806 287.705 174.101 269.941C169.188 258.624 157.771 251.156 145.511 252.535C125.733 254.766 122.319 277.75 142.319 293.308C137.474 328.844 106.722 342.324 132.664 412.484Z" fill="#FF9B54" stroke="black" stroke-width="20" stroke-miterlimit="10"/>
<path d="M389.409 404.105C415.802 387.074 423.763 351.606 423.84 308.27L411.282 314.367L400.52 320.958L389.409 322.449L377.345 318.301L370.279 309.684L368.686 297.608L375.949 280.858L388.149 269.507L403.636 263.41L413.665 262.516L420.426 263.035C393.079 167.405 310.434 155.866 283.147 270.938L295.722 277.58L304.117 289.919L309.327 312.656L309.455 328.588L307.352 347.374L305.93 355.106L304.636 357.703L315.108 355.498L329.335 355.898L340.591 358.453L357.423 366.968L364.31 372.35L375.2 383.582L389.409 404.105Z" fill="white"/>
<path d="M261.488 298.792C234.524 329.832 200.707 346.02 186.48 374.045C169.18 410.594 209.544 458.622 244.324 447.662L253.783 440.492L260.917 433.501L266.877 425.837L272.079 414.945L273.126 405.433L271.985 400.426L268.129 393.895L260.892 387.304L255.996 379.938L253.442 372.154L252.225 362.378L253.28 346.727L257.605 332.829L261.394 326.017V314.452L261.488 298.792Z" fill="white"/>
<path d="M369.052 179.897C374.322 171.177 383.066 163.956 393.377 162.406C405.024 160.49 416.739 164.611 426.709 170.283C421.745 168.153 416.62 166.419 411.384 165.097C393.828 160.754 380.18 165.769 369.01 179.897H369.052Z" fill="black"/>
<path d="M315.245 191.427C301.495 184.291 284.91 178.96 270.972 188.43C266.636 191.388 262.777 194.992 259.53 199.117C262.297 194.535 265.926 190.533 270.214 187.331C284.203 176.916 302.167 182.324 315.262 191.427H315.245Z" fill="black"/>
<path d="M322.933 212.571C340.046 222.16 345.529 214.172 346.269 196.911C357.107 210.979 367.171 216.812 378.375 199.117C369.325 217.119 357.235 213.73 346.312 199.645L347.819 199.176C347.632 202.35 347.087 205.493 346.193 208.544C342.285 221.317 331.719 218.839 322.933 212.571Z" fill="black"/>
<path d="M445.924 272.164C432.668 265.028 417.079 260.744 402.163 264.389C387.689 267.795 374.654 278.942 370.661 293.478C367.307 304.915 371.411 316.471 383.279 320.328C386.795 321.561 390.533 322.031 394.245 321.708C397.969 321.313 401.575 320.169 404.845 318.344C408.25 316.59 410.881 313.746 414.21 311.787C417.478 309.752 421.137 308.424 424.95 307.89C428.762 307.356 432.645 307.628 436.346 308.687C430.774 307.347 424.925 307.751 419.591 309.845C417.853 310.573 416.186 311.46 414.61 312.494C411.383 314.537 408.761 317.45 405.381 319.306C400.307 322.325 394.398 323.635 388.524 323.045C382.7 322.278 376.919 319.936 372.96 315.381C362.173 302.496 370.21 283.387 381.474 273.594C399.728 256.972 426.232 259.876 445.984 272.147L445.924 272.164Z" fill="black"/>
<path d="M397.881 420.012C379.652 382.858 351.667 347.995 305.769 357.439L304.73 357.644C307.65 343.295 309.626 328.622 308.655 314.018C307.923 303.527 305.735 292.644 299.852 283.754C294.122 274.778 283.513 269.371 273.033 272.828C269.84 273.909 266.477 275.383 264.28 278.005C262.102 280.644 261.017 284.018 261.25 287.432C262.131 294.579 262.552 301.776 262.51 308.977C262.317 316.276 261.546 323.549 260.202 330.726C253.979 337.24 252.429 354.774 252.983 363.596C253.527 373.415 256.388 384.034 264.791 389.943C265.941 390.863 267.009 391.88 267.984 392.983C276.873 402.538 274.106 415.558 267.422 425.462C261.011 435.153 252.037 442.953 242.212 449.008C255.571 440.398 271.211 425.854 272.777 409.189C273.373 402.376 270.155 395.76 264.987 391.391C263.684 390.301 261.99 389.1 260.807 387.9C254.464 381.573 252.293 372.299 251.705 363.673C251.186 353.514 252.174 342.954 256.405 333.595C257.044 332.191 257.926 330.911 259.01 329.815L258.78 330.249C259.342 326.698 259.921 323.172 260.304 319.621C261.213 310.741 261.184 301.79 260.219 292.916C260.049 291.12 259.811 289.416 259.649 287.534C259.164 280.449 263.404 274.701 269.934 272.206C286.646 265.002 300.822 277.103 306.075 292.644C313.21 313.235 310.485 335.954 306.331 356.894L305.479 356.043C352.204 346.957 379.933 381.956 397.855 420.012H397.881Z" fill="black"/>
<path d="M243.032 309.141C239.478 311.019 235.519 312 231.5 312C227.481 312 223.522 311.019 219.968 309.141C227.584 310.627 235.416 310.627 243.032 309.141Z" fill="black"/>
<path d="M169.743 392.198C162.745 370.679 178.113 338.728 192.799 323C190.9 325.504 189.104 328.058 187.461 330.715C177.176 347.448 165.623 372.288 169.743 392.198Z" fill="black"/>
<path d="M406.335 107.105L416.935 108.119C417.656 108.171 418.379 108.039 419.035 107.735C419.691 107.431 420.259 106.965 420.685 106.38C421.111 105.796 421.381 105.112 421.47 104.394C421.558 103.676 421.463 102.948 421.192 102.277C416.344 90.5096 410.313 79.2652 403.193 68.7169C402.69 67.985 401.988 67.4128 401.17 67.0681C400.352 66.7233 399.452 66.6206 398.577 66.7722C397.702 66.9237 396.889 67.323 396.235 67.9228C395.58 68.5226 395.111 69.2977 394.884 70.1561C391.418 83.2531 390.175 93.9232 401.482 104.866C402.801 106.138 404.511 106.927 406.335 107.105Z" fill="white"/>
<path d="M246.903 134.687L253.766 130.43C254.857 129.743 255.677 128.698 256.085 127.475C256.493 126.252 256.465 124.924 256.005 123.719C252.659 114.974 248.845 107.446 244.332 101.732C243.976 101.289 243.5 100.958 242.961 100.777C242.422 100.597 241.842 100.575 241.291 100.714C240.74 100.852 240.24 101.147 239.851 101.561C239.462 101.976 239.2 102.493 239.096 103.052C237.393 112.87 237.393 122.595 240.229 132.158C240.427 132.82 240.775 133.426 241.245 133.931C241.716 134.436 242.296 134.826 242.942 135.071C243.587 135.316 244.28 135.408 244.967 135.342C245.654 135.275 246.317 135.051 246.903 134.687Z" fill="white"/>
</svg>
