<svg width="1359" height="581" viewBox="0 0 1359 581" fill="none" xmlns="http://www.w3.org/2000/svg">
<path d="M109.256 432.722C67.9036 393.201 48.5259 268.37 126.76 211.316C136.807 203.992 141.37 190.878 137.071 179.212C133.495 169.495 125.287 164.36 112.866 163.398C94.8501 161.993 77.4051 170.262 66.3115 184.542C8.41688 259.003 -1.7232 331.863 25.1722 403.437C54.69 482.027 122.154 539.831 203.445 560.618C280.07 580.204 369.568 574.439 435.492 508.349C472.323 471.425 493.837 422.128 498.495 370.166C499.477 359.124 499.97 347.972 499.976 336.708C499.976 275.736 484.855 215.786 457.713 161.176C432.231 109.937 405.88 63.9612 376.575 35.766C375.295 34.506 373.77 33.5226 372.094 32.8768C370.417 32.2309 368.627 31.9364 366.832 32.0115C365.038 32.0865 363.277 32.5295 361.661 33.3131C360.045 34.0967 358.607 35.204 357.436 36.5665C346.113 50.0978 338.612 68.6789 337.982 96.3376C311.044 99.3522 285.962 105.586 263.059 115.557C254.426 99.8716 241.213 87.1833 225.402 76.1897C224.026 75.2432 222.446 74.6348 220.791 74.4139C219.135 74.193 217.451 74.3659 215.875 74.9184C214.299 75.471 212.875 76.3877 211.72 77.5941C210.565 78.8004 209.71 80.2623 209.226 81.8611C196.736 123.077 198.55 235.296 226.535 275.106C187.141 276.06 184.961 298.413 191.943 323.16C182.16 324.054 171.782 334.443 161.19 348.145C161.395 327.452 158.398 307.942 150.693 290.179C145.78 278.862 134.363 271.393 122.103 272.773C102.325 275.004 98.9112 297.988 118.91 313.546C114.066 349.081 83.3137 362.562 109.256 432.722Z" fill="#FF9B54" stroke="black" stroke-width="20" stroke-miterlimit="10"/>
<path d="M366.001 424.343C392.395 407.311 400.355 371.844 400.432 328.508L387.874 334.605L377.112 341.196L366.001 342.686L353.937 338.539L346.871 329.921L345.279 317.846L352.541 301.096L364.741 289.745L380.228 283.647L390.258 282.753L397.018 283.273C369.671 187.642 287.026 176.104 259.739 291.175L272.314 297.817L280.709 310.157L285.92 332.893L286.047 348.826L283.944 367.612L282.522 375.344L281.228 377.941L291.7 375.735L305.927 376.136L317.183 378.69L334.015 387.206L340.902 392.588L351.792 403.82L366.001 424.343Z" fill="white"/>
<path d="M238.08 319.03C211.116 350.069 177.299 366.258 163.072 394.282C145.772 430.832 186.136 478.86 220.916 467.9L230.375 460.73L237.509 453.739L243.469 446.075L248.671 435.183L249.718 425.671L248.577 420.664L244.72 414.132L237.484 407.541L232.588 400.175L230.034 392.392L228.816 382.616L229.872 366.964L234.197 353.067L237.986 346.254V334.69L238.08 319.03Z" fill="white"/>
<path d="M345.644 200.135C350.914 191.415 359.658 184.194 369.968 182.644C381.615 180.728 393.331 184.849 403.3 190.521C398.336 188.391 393.212 186.657 387.975 185.335C370.42 180.992 356.772 186.007 345.602 200.135H345.644Z" fill="black"/>
<path d="M291.836 211.665C278.086 204.529 261.501 199.198 247.564 208.667C243.228 211.626 239.369 215.23 236.121 219.354C238.889 214.773 242.517 210.771 246.806 207.569C260.794 197.154 278.759 202.562 291.853 211.665H291.836Z" fill="black"/>
<path d="M299.524 232.809C316.637 242.398 322.12 234.41 322.861 217.149C333.699 231.217 343.763 237.05 354.967 219.354C345.917 237.357 333.827 233.967 322.904 219.882L324.411 219.414C324.224 222.588 323.678 225.73 322.784 228.781C318.877 241.555 308.311 239.077 299.524 232.809Z" fill="black"/>
<path d="M422.516 292.402C409.26 285.266 393.671 280.982 378.755 284.627C364.281 288.033 351.246 299.18 347.253 313.716C343.899 325.153 348.002 336.708 359.871 340.566C363.387 341.799 367.125 342.269 370.837 341.945C374.561 341.551 378.166 340.407 381.437 338.582C384.842 336.828 387.473 333.983 390.802 332.025C394.07 329.989 397.729 328.662 401.541 328.128C405.354 327.594 409.237 327.866 412.938 328.925C407.366 327.585 401.517 327.989 396.183 330.083C394.445 330.811 392.777 331.698 391.202 332.732C387.975 334.775 385.353 337.688 381.973 339.544C376.899 342.562 370.99 343.873 365.115 343.282C359.292 342.516 353.511 340.174 349.552 335.618C338.765 322.734 346.802 303.625 358.066 293.832C376.32 277.21 402.824 280.114 422.576 292.385L422.516 292.402Z" fill="black"/>
<path d="M374.473 440.25C356.244 403.096 328.259 368.233 282.361 377.677L281.322 377.881C284.242 363.533 286.217 348.86 285.247 334.256C284.515 323.765 282.326 312.882 276.443 303.991C270.714 295.016 260.105 289.608 249.625 293.066C246.432 294.147 243.069 295.62 240.872 298.243C238.694 300.882 237.609 304.256 237.841 307.67C238.723 314.817 239.144 322.014 239.101 329.215C238.909 336.514 238.137 343.786 236.794 350.964C230.57 357.478 229.021 375.012 229.574 383.834C230.119 393.652 232.98 404.271 241.383 410.181C242.533 411.101 243.601 412.118 244.576 413.221C253.464 422.776 250.697 435.796 244.014 445.7C237.603 455.391 228.629 463.191 218.804 469.246C232.163 460.636 247.803 446.092 249.369 429.427C249.965 422.614 246.747 415.997 241.579 411.629C240.276 410.539 238.582 409.338 237.399 408.137C231.056 401.81 228.885 392.537 228.297 383.91C227.778 373.751 228.766 363.192 232.997 353.833C233.636 352.429 234.518 351.149 235.602 350.052L235.372 350.487C235.934 346.936 236.513 343.41 236.896 339.859C237.804 330.979 237.776 322.028 236.811 313.154C236.641 311.357 236.402 309.654 236.241 307.772C235.755 300.687 239.995 294.939 246.525 292.444C263.238 285.24 277.414 297.341 282.667 312.882C289.802 333.472 287.077 356.192 282.922 377.132L282.071 376.281C328.795 367.194 356.525 402.194 374.447 440.25H374.473Z" fill="black"/>
<path d="M219.624 329.379C216.07 331.256 212.111 332.238 208.092 332.238C204.072 332.238 200.114 331.256 196.559 329.379C204.176 330.865 212.007 330.865 219.624 329.379Z" fill="black"/>
<path d="M146.335 412.436C139.337 390.917 154.704 358.966 169.391 343.238C167.492 345.741 165.696 348.296 164.053 350.953C153.768 367.686 142.215 392.526 146.335 412.436Z" fill="black"/>
<path d="M382.927 127.343L393.527 128.357C394.248 128.409 394.971 128.277 395.627 127.973C396.283 127.669 396.851 127.202 397.277 126.618C397.703 126.033 397.973 125.35 398.061 124.632C398.15 123.914 398.054 123.185 397.783 122.515C392.936 110.747 386.905 99.503 379.785 88.9547C379.282 88.2228 378.58 87.6506 377.762 87.3059C376.944 86.9611 376.044 86.8584 375.169 87.0099C374.294 87.1615 373.481 87.5608 372.826 88.1606C372.172 88.7604 371.703 89.5355 371.475 90.3939C368.01 103.491 366.767 114.161 378.074 125.104C379.393 126.376 381.103 127.165 382.927 127.343Z" fill="white"/>
<path d="M223.495 154.925L230.357 150.668C231.449 149.981 232.268 148.936 232.676 147.713C233.085 146.489 233.056 145.162 232.596 143.957C229.25 135.212 225.436 127.684 220.924 121.97C220.567 121.527 220.091 121.196 219.552 121.015C219.013 120.835 218.434 120.813 217.883 120.951C217.332 121.09 216.832 121.385 216.443 121.799C216.054 122.214 215.792 122.731 215.688 123.29C213.985 133.108 213.985 142.833 216.82 152.396C217.018 153.058 217.366 153.664 217.837 154.169C218.307 154.674 218.888 155.064 219.533 155.309C220.179 155.553 220.872 155.646 221.559 155.58C222.246 155.513 222.908 155.289 223.495 154.925Z" fill="white"/>
<path d="M605.989 27.4494H625.482V140.646H652.05V156H605.989V27.4494ZM688.177 157.129C683.711 157.129 679.747 156.301 676.285 154.645C672.873 152.989 669.988 150.405 667.63 146.893C665.271 143.381 663.49 138.89 662.286 133.421C661.082 127.901 660.48 121.278 660.48 113.551V93.9826C660.48 87.4096 660.956 81.7899 661.91 77.1235C662.913 72.407 664.193 68.4682 665.748 65.3071C667.354 62.0958 669.185 59.5619 671.242 57.7054C673.35 55.8489 675.507 54.444 677.715 53.4906C679.923 52.4871 682.105 51.8599 684.263 51.609C686.471 51.308 688.503 51.1575 690.359 51.1575C693.771 51.1575 697.058 51.6843 700.219 52.738C703.38 53.7415 706.165 55.4977 708.573 58.0065C710.982 60.4651 712.888 63.7767 714.293 67.9413C715.748 72.1059 716.476 77.2991 716.476 83.5209C716.476 85.6283 716.401 87.7608 716.25 89.9183C716.15 92.0759 715.999 94.2084 715.798 96.3158C715.598 98.373 715.322 100.38 714.971 102.337C714.67 104.294 714.343 106.1 713.992 107.756H679.597V118.293C679.597 122.809 679.772 126.622 680.123 129.733C680.475 132.794 681.052 135.277 681.854 137.184C682.707 139.041 683.836 140.395 685.241 141.248C686.696 142.051 688.503 142.453 690.66 142.453C691.814 142.453 692.943 142.227 694.047 141.775C695.151 141.273 696.104 140.471 696.907 139.367C697.76 138.263 698.438 136.808 698.939 135.001C699.441 133.145 699.692 130.862 699.692 128.152V124.916H715.573V128.905C715.573 138.739 713.214 145.915 708.498 150.43C703.832 154.896 697.058 157.129 688.177 157.129ZM698.714 94.961C698.764 94.4091 698.814 93.6815 698.864 92.7784C698.914 91.825 698.939 90.8466 698.939 89.8431C698.99 88.8396 699.015 87.8611 699.015 86.9078C699.015 85.9043 699.015 85.0513 699.015 84.3488C699.015 77.5249 698.212 72.6077 696.606 69.5971C695.001 66.5866 692.617 65.0813 689.456 65.0813C687.8 65.0813 686.345 65.4827 685.091 66.2855C683.836 67.0381 682.808 68.3427 682.005 70.1992C681.202 72.0056 680.6 74.414 680.199 77.4245C679.797 80.4351 679.597 84.1732 679.597 88.6389V94.961H698.714ZM732.582 52.3617H747.334L748.99 63.4255V63.5007C750.495 61.1425 752.101 59.1856 753.807 57.6302C755.513 56.0245 757.269 54.745 759.075 53.7917C760.932 52.8384 762.813 52.161 764.72 51.7596C766.677 51.3582 768.609 51.1575 770.515 51.1575C774.58 51.1575 778.017 52.1359 780.826 54.0928C783.636 56.0496 785.769 58.9849 787.224 62.8986C788.729 60.6407 790.31 58.7591 791.965 57.2538C793.671 55.7486 795.428 54.5443 797.234 53.6412C799.04 52.738 800.872 52.1108 802.728 51.7596C804.585 51.3582 806.466 51.1575 808.373 51.1575C814.394 51.1575 819.035 53.2899 822.297 57.5549C825.608 61.7697 827.264 68.1169 827.264 76.5966V156H808.222V77.274C808.222 75.0161 808.047 73.1094 807.696 71.554C807.344 69.9985 806.818 68.7441 806.115 67.7908C805.413 66.8374 804.509 66.1601 803.406 65.7587C802.302 65.3071 800.972 65.0813 799.417 65.0813C797.66 65.0813 795.904 65.7336 794.148 67.0381C792.392 68.2925 790.786 70.0487 789.331 72.3066C789.381 72.7582 789.407 73.2098 789.407 73.6614C789.407 74.1129 789.407 74.5645 789.407 75.0161V156H770.365V77.274C770.365 75.0161 770.189 73.1094 769.838 71.554C769.487 69.9985 768.96 68.7441 768.257 67.7908C767.555 66.8374 766.652 66.1601 765.548 65.7587C764.444 65.3071 763.114 65.0813 761.559 65.0813C759.853 65.0813 758.122 65.7085 756.366 66.9629C754.61 68.2173 753.029 69.9483 751.624 72.1561V156H732.582V52.3617ZM846.983 19.0951H866.025V46.7169L865.423 60.4149L865.498 60.4902C866.351 59.286 867.33 58.1319 868.434 57.028C869.588 55.9242 870.867 54.9457 872.272 54.0928C873.727 53.1896 875.308 52.4871 877.014 51.9854C878.77 51.4836 880.676 51.2327 882.734 51.2327C883.787 51.2327 885.042 51.3331 886.497 51.5338C888.002 51.7345 889.533 52.2362 891.088 53.0391C892.694 53.8419 894.274 55.0461 895.83 56.6517C897.435 58.2072 898.84 60.3647 900.044 63.1244C901.299 65.8841 902.302 69.3211 903.055 73.4356C903.858 77.55 904.259 82.5425 904.259 88.4131V119.798C904.259 125.669 903.858 130.661 903.055 134.776C902.302 138.89 901.299 142.352 900.044 145.162C898.79 147.922 897.36 150.104 895.754 151.71C894.149 153.316 892.518 154.52 890.862 155.323C889.206 156.125 887.601 156.627 886.045 156.828C884.49 157.079 883.135 157.204 881.981 157.204C879.573 157.204 877.39 156.903 875.433 156.301C873.526 155.699 871.82 154.896 870.315 153.893C868.86 152.839 867.555 151.66 866.401 150.355C865.298 149.051 864.319 147.721 863.466 146.366L861.886 156H846.983V19.0951ZM866.025 135.001C866.427 135.955 866.903 136.883 867.455 137.786C868.057 138.689 868.735 139.492 869.487 140.195C870.24 140.847 871.118 141.399 872.121 141.85C873.125 142.252 874.254 142.453 875.508 142.453C876.913 142.453 878.193 142.202 879.347 141.7C880.501 141.148 881.504 140.195 882.357 138.84C883.21 137.435 883.863 135.503 884.314 133.045C884.816 130.586 885.067 127.425 885.067 123.561V83.8972C885.067 80.0337 884.816 76.8977 884.314 74.4893C883.863 72.0306 883.21 70.0989 882.357 68.6939C881.555 67.289 880.576 66.3357 879.422 65.8339C878.268 65.3322 876.989 65.0813 875.584 65.0813C873.225 65.0813 871.268 65.7837 869.713 67.1887C868.208 68.5434 866.978 70.1741 866.025 72.0808V135.001ZM921.495 52.3617H935.418L937.074 62.8986C939.182 58.9849 941.59 56.0496 944.3 54.0928C947.059 52.1359 949.869 51.1575 952.729 51.1575C958.198 51.1575 962.237 52.8384 964.847 56.2001C967.456 59.5619 968.76 64.6046 968.76 71.3282C968.76 72.1812 968.685 73.2098 968.534 74.414C968.434 75.568 968.259 76.7973 968.008 78.1019C967.807 79.3563 967.531 80.6358 967.18 81.9404C966.879 83.1948 966.553 84.3488 966.201 85.4025H952.955V75.7687C952.955 73.6614 952.804 71.9303 952.503 70.5755C952.252 69.2208 951.901 68.142 951.45 67.3392C950.998 66.4862 950.471 65.9092 949.869 65.6081C949.267 65.2569 948.615 65.0813 947.912 65.0813C946.407 65.0813 945.002 65.583 943.697 66.5866C942.443 67.5399 941.389 68.8946 940.536 70.6508V156H921.495V52.3617ZM995.103 157.129C991.891 157.129 989.031 156.502 986.523 155.247C984.064 153.943 981.982 152.187 980.276 149.979C978.57 147.771 977.265 145.162 976.362 142.151C975.509 139.091 975.082 135.779 975.082 132.217C975.082 127.952 975.609 124.163 976.663 120.852C977.717 117.54 979.247 114.555 981.254 111.895C983.311 109.236 985.845 106.828 988.856 104.67C991.866 102.462 995.353 100.38 999.317 98.4232C1001.22 97.4698 1003.36 96.5165 1005.71 95.5631C1008.12 94.5596 1010.26 93.7066 1012.11 93.0042V79.3061C1012.11 77.2991 1012.04 75.4426 1011.89 73.7366C1011.74 71.9805 1011.36 70.4752 1010.76 69.2208C1010.21 67.9162 1009.35 66.9127 1008.2 66.2102C1007.04 65.4576 1005.46 65.0813 1003.46 65.0813C1002.1 65.0813 1000.77 65.3322 999.468 65.8339C998.213 66.3357 997.085 67.1887 996.081 68.3929C995.128 69.5971 994.35 71.2027 993.748 73.2098C993.196 75.2168 992.92 77.7005 992.92 80.6609V85.1767H978.394C977.942 83.2199 977.591 81.4386 977.34 79.833C977.14 78.1772 977.039 76.5465 977.039 74.9408C977.039 71.0773 977.692 67.6653 978.996 64.705C980.351 61.7446 982.207 59.2609 984.566 57.2538C986.974 55.2468 989.834 53.7415 993.146 52.738C996.457 51.6843 1000.1 51.1575 1004.06 51.1575C1009.23 51.1575 1013.52 51.7345 1016.93 52.8885C1020.34 53.9924 1023.05 55.6733 1025.06 57.9312C1027.11 60.1891 1028.54 63.0241 1029.35 66.436C1030.2 69.848 1030.63 73.837 1030.63 78.403V156H1016.48L1015.12 147.119C1013.07 150.079 1010.31 152.488 1006.84 154.344C1003.43 156.201 999.518 157.129 995.103 157.129ZM1003.53 142.453C1005.14 142.453 1006.69 142.051 1008.2 141.248C1009.75 140.395 1011.06 139.367 1012.11 138.162V105.724C1011.11 106.125 1009.98 106.602 1008.73 107.154C1007.47 107.706 1006.12 108.433 1004.66 109.336C1003.31 110.189 1001.98 111.218 1000.67 112.422C999.368 113.626 998.188 115.056 997.135 116.712C996.131 118.368 995.303 120.25 994.651 122.357C994.049 124.414 993.748 126.722 993.748 129.281C993.748 133.245 994.526 136.431 996.081 138.84C997.636 141.248 1000.12 142.453 1003.53 142.453ZM605.989 221.449H626.234C629.295 221.449 632.456 221.55 635.718 221.75C639.029 221.901 642.241 222.428 645.352 223.331C648.513 224.234 651.473 225.639 654.233 227.546C657.042 229.402 659.501 232.036 661.609 235.448C663.716 238.81 665.372 243.075 666.576 248.243C667.83 253.361 668.458 259.633 668.458 267.059V304.39C668.458 311.816 667.83 318.113 666.576 323.281C665.372 328.449 663.716 332.714 661.609 336.076C659.501 339.438 657.042 342.072 654.233 343.979C651.473 345.835 648.513 347.215 645.352 348.118C642.241 349.022 639.029 349.574 635.718 349.774C632.456 349.925 629.295 350 626.234 350H605.989V221.449ZM630.449 336.377C633.962 336.377 636.847 335.926 639.105 335.022C641.413 334.119 643.219 332.539 644.524 330.281C645.878 327.973 646.807 324.862 647.308 320.948C647.81 316.984 648.061 311.992 648.061 305.971V266.081C648.061 260.06 647.81 255.092 647.308 251.179C646.807 247.215 645.878 244.104 644.524 241.846C643.219 239.538 641.413 237.932 639.105 237.029C636.847 236.126 633.962 235.674 630.449 235.674H625.482V336.377H630.449ZM699.015 351.129C695.803 351.129 692.943 350.502 690.435 349.247C687.976 347.943 685.894 346.187 684.188 343.979C682.482 341.771 681.177 339.162 680.274 336.151C679.421 333.091 678.994 329.779 678.994 326.217C678.994 321.952 679.521 318.163 680.575 314.852C681.629 311.54 683.159 308.555 685.166 305.895C687.223 303.236 689.757 300.828 692.768 298.67C695.778 296.462 699.266 294.38 703.229 292.423C705.136 291.47 707.269 290.516 709.627 289.563C712.035 288.56 714.168 287.707 716.024 287.004V273.306C716.024 271.299 715.949 269.443 715.798 267.737C715.648 265.98 715.272 264.475 714.67 263.221C714.118 261.916 713.265 260.913 712.111 260.21C710.956 259.458 709.376 259.081 707.369 259.081C706.014 259.081 704.685 259.332 703.38 259.834C702.126 260.336 700.997 261.189 699.993 262.393C699.04 263.597 698.262 265.203 697.66 267.21C697.108 269.217 696.832 271.701 696.832 274.661V279.177H682.306C681.854 277.22 681.503 275.439 681.252 273.833C681.052 272.177 680.951 270.546 680.951 268.941C680.951 265.077 681.604 261.665 682.908 258.705C684.263 255.745 686.119 253.261 688.478 251.254C690.886 249.247 693.746 247.742 697.058 246.738C700.369 245.684 704.007 245.157 707.971 245.157C713.139 245.157 717.429 245.734 720.841 246.889C724.253 247.992 726.963 249.673 728.97 251.931C731.027 254.189 732.457 257.024 733.26 260.436C734.113 263.848 734.539 267.837 734.539 272.403V350H720.39L719.035 341.119C716.978 344.079 714.218 346.488 710.756 348.344C707.344 350.201 703.43 351.129 699.015 351.129ZM707.444 336.453C709.05 336.453 710.605 336.051 712.111 335.248C713.666 334.395 714.971 333.367 716.024 332.162V299.724C715.021 300.125 713.892 300.602 712.637 301.154C711.383 301.706 710.028 302.433 708.573 303.336C707.218 304.189 705.889 305.218 704.584 306.422C703.28 307.626 702.1 309.056 701.047 310.712C700.043 312.368 699.215 314.25 698.563 316.357C697.961 318.414 697.66 320.722 697.66 323.281C697.66 327.245 698.438 330.431 699.993 332.84C701.549 335.248 704.032 336.453 707.444 336.453ZM774.128 351.129C772.974 351.129 771.619 351.004 770.064 350.753C768.508 350.552 766.903 350.05 765.247 349.247C763.591 348.445 761.96 347.24 760.355 345.635C758.749 344.029 757.319 341.846 756.065 339.087C754.81 336.327 753.782 332.89 752.979 328.776C752.226 324.661 751.85 319.669 751.85 313.798V282.413C751.85 276.542 752.226 271.55 752.979 267.436C753.782 263.321 754.785 259.884 755.989 257.124C757.244 254.365 758.649 252.207 760.204 250.652C761.81 249.046 763.39 247.842 764.946 247.039C766.551 246.236 768.082 245.734 769.537 245.534C771.042 245.333 772.322 245.233 773.375 245.233C775.834 245.233 778.042 245.584 779.999 246.286C781.955 246.989 783.712 247.917 785.267 249.071C786.822 250.175 788.177 251.455 789.331 252.91C790.535 254.315 791.564 255.719 792.417 257.124L794.223 246.362H809.05V383.568H790.084V355.946L790.611 343.302C788.905 345.459 786.722 347.316 784.063 348.871C781.403 350.376 778.092 351.129 774.128 351.129ZM780.601 336.453C781.855 336.453 782.959 336.252 783.912 335.85C784.916 335.399 785.794 334.847 786.546 334.195C787.349 333.492 788.027 332.689 788.579 331.786C789.181 330.883 789.682 329.955 790.084 329.001V266.683C789.131 264.576 787.851 262.794 786.245 261.339C784.69 259.834 782.783 259.081 780.525 259.081C779.12 259.081 777.841 259.357 776.687 259.909C775.533 260.411 774.529 261.364 773.676 262.769C772.823 264.124 772.146 266.031 771.644 268.489C771.193 270.948 770.967 274.109 770.967 277.973V317.561C770.967 321.425 771.193 324.586 771.644 327.045C772.146 329.503 772.823 331.435 773.676 332.84C774.529 334.195 775.533 335.148 776.687 335.7C777.891 336.202 779.196 336.453 780.601 336.453ZM828.769 246.362H847.811V324.26C847.811 328.826 848.514 332.012 849.919 333.818C851.324 335.574 853.381 336.453 856.09 336.453C857.997 336.453 859.853 335.926 861.66 334.872C863.466 333.818 865.097 332.313 866.552 330.356V246.362H885.594V350H871.068L869.186 338.936H869.111C867.606 341.294 866 343.276 864.294 344.882C862.638 346.438 860.882 347.692 859.026 348.645C857.219 349.548 855.363 350.201 853.456 350.602C851.549 351.004 849.643 351.204 847.736 351.204C841.665 351.204 836.973 349.097 833.662 344.882C830.4 340.667 828.769 334.295 828.769 325.765V246.362ZM930.526 351.129C926.061 351.129 922.097 350.301 918.635 348.645C915.223 346.989 912.337 344.405 909.979 340.893C907.621 337.381 905.84 332.89 904.635 327.421C903.431 321.901 902.829 315.278 902.829 307.551V287.983C902.829 281.41 903.306 275.79 904.259 271.123C905.263 266.407 906.542 262.468 908.098 259.307C909.703 256.096 911.535 253.562 913.592 251.705C915.699 249.849 917.857 248.444 920.065 247.491C922.272 246.487 924.455 245.86 926.613 245.609C928.82 245.308 930.852 245.157 932.709 245.157C936.121 245.157 939.407 245.684 942.568 246.738C945.73 247.742 948.514 249.498 950.923 252.006C953.331 254.465 955.238 257.777 956.643 261.941C958.098 266.106 958.825 271.299 958.825 277.521C958.825 279.628 958.75 281.761 958.6 283.918C958.499 286.076 958.349 288.208 958.148 290.316C957.947 292.373 957.671 294.38 957.32 296.337C957.019 298.294 956.693 300.1 956.342 301.756H921.946V312.293C921.946 316.809 922.122 320.622 922.473 323.733C922.824 326.794 923.401 329.277 924.204 331.184C925.057 333.041 926.186 334.395 927.591 335.248C929.046 336.051 930.852 336.453 933.01 336.453C934.164 336.453 935.293 336.227 936.397 335.775C937.501 335.273 938.454 334.471 939.257 333.367C940.11 332.263 940.787 330.808 941.289 329.001C941.791 327.145 942.042 324.862 942.042 322.152V318.916H957.922V322.905C957.922 332.739 955.564 339.915 950.847 344.43C946.181 348.896 939.407 351.129 930.526 351.129ZM941.063 288.961C941.113 288.409 941.164 287.682 941.214 286.778C941.264 285.825 941.289 284.847 941.289 283.843C941.339 282.84 941.364 281.861 941.364 280.908C941.364 279.904 941.364 279.051 941.364 278.349C941.364 271.525 940.561 266.608 938.956 263.597C937.35 260.587 934.967 259.081 931.806 259.081C930.15 259.081 928.695 259.483 927.44 260.285C926.186 261.038 925.157 262.343 924.355 264.199C923.552 266.006 922.95 268.414 922.548 271.425C922.147 274.435 921.946 278.173 921.946 282.639V288.961H941.063ZM975.233 213.095H994.275V350H975.233V213.095ZM1039.21 351.129C1034.74 351.129 1030.78 350.301 1027.32 348.645C1023.9 346.989 1021.02 344.405 1018.66 340.893C1016.3 337.381 1014.52 332.89 1013.32 327.421C1012.11 321.901 1011.51 315.278 1011.51 307.551V287.983C1011.51 281.41 1011.99 275.79 1012.94 271.123C1013.94 266.407 1015.22 262.468 1016.78 259.307C1018.38 256.096 1020.22 253.562 1022.27 251.705C1024.38 249.849 1026.54 248.444 1028.75 247.491C1030.95 246.487 1033.14 245.86 1035.29 245.609C1037.5 245.308 1039.53 245.157 1041.39 245.157C1044.8 245.157 1048.09 245.684 1051.25 246.738C1054.41 247.742 1057.2 249.498 1059.6 252.006C1062.01 254.465 1063.92 257.777 1065.32 261.941C1066.78 266.106 1067.51 271.299 1067.51 277.521C1067.51 279.628 1067.43 281.761 1067.28 283.918C1067.18 286.076 1067.03 288.208 1066.83 290.316C1066.63 292.373 1066.35 294.38 1066 296.337C1065.7 298.294 1065.37 300.1 1065.02 301.756H1030.63V312.293C1030.63 316.809 1030.8 320.622 1031.15 323.733C1031.51 326.794 1032.08 329.277 1032.89 331.184C1033.74 333.041 1034.87 334.395 1036.27 335.248C1037.73 336.051 1039.53 336.453 1041.69 336.453C1042.84 336.453 1043.97 336.227 1045.08 335.775C1046.18 335.273 1047.13 334.471 1047.94 333.367C1048.79 332.263 1049.47 330.808 1049.97 329.001C1050.47 327.145 1050.72 324.862 1050.72 322.152V318.916H1066.6V322.905C1066.6 332.739 1064.24 339.915 1059.53 344.43C1054.86 348.896 1048.09 351.129 1039.21 351.129ZM1049.74 288.961C1049.79 288.409 1049.84 287.682 1049.89 286.778C1049.94 285.825 1049.97 284.847 1049.97 283.843C1050.02 282.84 1050.05 281.861 1050.05 280.908C1050.05 279.904 1050.05 279.051 1050.05 278.349C1050.05 271.525 1049.24 266.608 1047.64 263.597C1046.03 260.587 1043.65 259.081 1040.49 259.081C1038.83 259.081 1037.38 259.483 1036.12 260.285C1034.87 261.038 1033.84 262.343 1033.04 264.199C1032.23 266.006 1031.63 268.414 1031.23 271.425C1030.83 274.435 1030.63 278.173 1030.63 282.639V288.961H1049.74ZM605.989 415.449H655.136V430.803H625.482V469.263H648.738V484.617H625.482V544H605.989V415.449ZM677.113 425.535C673.601 425.535 670.816 424.481 668.759 422.374C666.752 420.266 665.748 417.18 665.748 413.116C665.748 410.858 665.999 408.977 666.501 407.471C667.053 405.916 667.805 404.687 668.759 403.783C669.762 402.83 670.966 402.153 672.371 401.751C673.776 401.3 675.382 401.074 677.188 401.074C680.951 401.074 683.811 402.027 685.768 403.934C687.725 405.841 688.703 408.901 688.703 413.116C688.703 417.03 687.7 420.091 685.693 422.298C683.736 424.456 680.876 425.535 677.113 425.535ZM667.253 440.362H686.295V544H667.253V440.362ZM706.541 407.095H725.583V544H706.541V407.095ZM745.528 440.362H760.279L761.935 451.425V451.501C763.44 449.142 765.046 447.186 766.752 445.63C768.458 444.025 770.214 442.745 772.021 441.792C773.877 440.838 775.759 440.161 777.665 439.76C779.622 439.358 781.554 439.157 783.461 439.157C787.525 439.157 790.962 440.136 793.772 442.093C796.582 444.05 798.714 446.985 800.169 450.899C801.675 448.641 803.255 446.759 804.911 445.254C806.617 443.749 808.373 442.544 810.179 441.641C811.986 440.738 813.817 440.111 815.674 439.76C817.53 439.358 819.412 439.157 821.318 439.157C827.339 439.157 831.981 441.29 835.242 445.555C838.554 449.77 840.21 456.117 840.21 464.597V544H821.168V465.274C821.168 463.016 820.992 461.109 820.641 459.554C820.29 457.999 819.763 456.744 819.06 455.791C818.358 454.837 817.455 454.16 816.351 453.759C815.247 453.307 813.917 453.081 812.362 453.081C810.606 453.081 808.85 453.734 807.094 455.038C805.337 456.293 803.732 458.049 802.277 460.307C802.327 460.758 802.352 461.21 802.352 461.661C802.352 462.113 802.352 462.565 802.352 463.016V544H783.31V465.274C783.31 463.016 783.135 461.109 782.783 459.554C782.432 457.999 781.905 456.744 781.203 455.791C780.5 454.837 779.597 454.16 778.493 453.759C777.389 453.307 776.06 453.081 774.504 453.081C772.798 453.081 771.067 453.708 769.311 454.963C767.555 456.217 765.974 457.948 764.569 460.156V544H745.528V440.362ZM884.916 545.129C880.451 545.129 876.487 544.301 873.025 542.645C869.613 540.989 866.728 538.405 864.369 534.893C862.011 531.381 860.23 526.89 859.026 521.421C857.821 515.901 857.219 509.278 857.219 501.551V481.983C857.219 475.41 857.696 469.79 858.649 465.123C859.653 460.407 860.932 456.468 862.488 453.307C864.093 450.096 865.925 447.562 867.982 445.705C870.089 443.849 872.247 442.444 874.455 441.491C876.662 440.487 878.845 439.86 881.003 439.609C883.21 439.308 885.242 439.157 887.099 439.157C890.511 439.157 893.797 439.684 896.959 440.738C900.12 441.742 902.904 443.498 905.313 446.006C907.721 448.465 909.628 451.777 911.033 455.941C912.488 460.106 913.216 465.299 913.216 471.521C913.216 473.628 913.14 475.761 912.99 477.918C912.889 480.076 912.739 482.208 912.538 484.316C912.337 486.373 912.061 488.38 911.71 490.337C911.409 492.294 911.083 494.1 910.732 495.756H876.336V506.293C876.336 510.809 876.512 514.622 876.863 517.733C877.214 520.794 877.791 523.277 878.594 525.184C879.447 527.041 880.576 528.395 881.981 529.248C883.436 530.051 885.242 530.453 887.4 530.453C888.554 530.453 889.683 530.227 890.787 529.775C891.891 529.273 892.844 528.471 893.647 527.367C894.5 526.263 895.177 524.808 895.679 523.001C896.181 521.145 896.432 518.862 896.432 516.152V512.916H912.312V516.905C912.312 526.739 909.954 533.915 905.238 538.43C900.571 542.896 893.797 545.129 884.916 545.129ZM895.453 482.961C895.503 482.409 895.554 481.682 895.604 480.778C895.654 479.825 895.679 478.847 895.679 477.843C895.729 476.84 895.754 475.861 895.754 474.908C895.754 473.904 895.754 473.051 895.754 472.349C895.754 465.525 894.951 460.608 893.346 457.597C891.74 454.587 889.357 453.081 886.196 453.081C884.54 453.081 883.085 453.483 881.831 454.285C880.576 455.038 879.547 456.343 878.745 458.199C877.942 460.006 877.34 462.414 876.938 465.425C876.537 468.435 876.336 472.173 876.336 476.639V482.961H895.453ZM949.041 486.799C949.041 484.792 949.091 483.061 949.192 481.606C949.292 480.101 949.493 478.671 949.794 477.316C950.145 475.961 950.647 474.607 951.299 473.252C951.951 471.847 952.829 470.267 953.933 468.51L962.814 454.511C964.721 451.4 966.226 448.189 967.33 444.878C968.434 441.566 968.986 438.505 968.986 435.695C968.986 433.638 968.71 431.757 968.158 430.051C967.606 428.345 966.828 426.889 965.825 425.685C964.821 424.481 963.567 423.553 962.062 422.9C960.607 422.198 958.976 421.847 957.17 421.847C953.105 421.847 950.12 423.653 948.213 427.266C946.307 430.878 945.353 436.097 945.353 442.921V449.092H929.999C929.447 446.282 928.971 443.723 928.569 441.415C928.168 439.057 927.967 436.498 927.967 433.738C927.967 429.925 928.544 426.363 929.698 423.051C930.852 419.739 932.659 416.854 935.117 414.396C937.576 411.937 940.687 410.005 944.45 408.6C948.213 407.195 952.704 406.493 957.922 406.493C963.09 406.493 967.606 407.195 971.47 408.6C975.383 409.955 978.645 411.912 981.254 414.471C983.863 417.03 985.795 420.116 987.049 423.728C988.354 427.291 989.006 431.28 989.006 435.695C989.006 438.204 988.78 440.613 988.329 442.921C987.877 445.179 987.175 447.462 986.221 449.77C985.268 452.028 984.089 454.361 982.684 456.769C981.279 459.127 979.598 461.611 977.641 464.22L971.62 472.349C970.165 474.306 969.036 475.987 968.233 477.391C967.431 478.796 966.828 480.176 966.427 481.531C966.076 482.886 965.85 484.316 965.75 485.821C965.649 487.326 965.599 489.133 965.599 491.24V502.078H948.966L949.041 486.799ZM946.633 530.678C946.633 525.41 947.686 521.647 949.794 519.389C951.901 517.081 954.761 515.927 958.374 515.927C962.137 515.927 965.047 517.131 967.104 519.539C969.162 521.948 970.19 525.661 970.19 530.678C970.19 535.244 969.137 538.782 967.029 541.291C964.972 543.799 962.062 545.054 958.299 545.054C954.736 545.054 951.901 543.849 949.794 541.441C947.686 538.982 946.633 535.395 946.633 530.678Z" fill="white"/>
</svg>
