<svg width="526" height="567" viewBox="0 0 526 567" fill="none" xmlns="http://www.w3.org/2000/svg">
<path d="M117.256 414.722C75.9036 375.201 56.5259 250.37 134.76 193.316C144.807 185.992 149.37 172.878 145.071 161.212C141.495 151.495 133.287 146.36 120.866 145.398C102.85 143.993 85.4051 152.262 74.3115 166.542C16.4169 241.003 6.2768 313.863 33.1722 385.437C62.69 464.027 130.154 521.831 211.445 542.618C288.07 562.204 377.568 556.439 443.492 490.349C480.323 453.425 501.837 404.128 506.495 352.166C507.477 341.124 507.97 329.972 507.976 318.708C507.976 257.736 492.855 197.786 465.713 143.176C440.231 91.9371 413.88 45.9612 384.575 17.766C383.295 16.506 381.77 15.5226 380.094 14.8768C378.417 14.2309 376.627 13.9364 374.832 14.0115C373.038 14.0865 371.278 14.5295 369.661 15.3131C368.045 16.0967 366.607 17.204 365.436 18.5665C354.113 32.0978 346.612 50.6789 345.982 78.3376C319.044 81.3522 293.962 87.5856 271.059 97.5574C262.426 81.8716 249.213 69.1833 233.402 58.1897C232.026 57.2432 230.446 56.6348 228.791 56.4139C227.135 56.193 225.451 56.3659 223.875 56.9184C222.299 57.471 220.875 58.3877 219.72 59.5941C218.565 60.8004 217.71 62.2623 217.226 63.8611C204.736 105.077 206.55 217.296 234.535 257.106C195.141 258.06 192.961 280.413 199.943 305.16C190.16 306.054 179.782 316.443 169.19 330.145C169.395 309.452 166.398 289.942 158.693 272.179C153.78 260.862 142.363 253.393 130.103 254.773C110.325 257.004 106.911 279.988 126.91 295.546C122.066 331.081 91.3137 344.562 117.256 414.722Z" fill="#FF9B54" stroke="black" stroke-width="20" stroke-miterlimit="10"/>
<path d="M388.409 404.105C414.802 387.074 422.763 351.606 422.84 308.27L410.282 314.367L399.52 320.958L388.409 322.449L376.345 318.301L369.279 309.684L367.686 297.608L374.949 280.858L387.149 269.507L402.636 263.41L412.665 262.516L419.426 263.035C392.079 167.405 309.434 155.866 282.147 270.938L294.722 277.58L303.117 289.919L308.327 312.656L308.455 328.588L306.352 347.374L304.93 355.106L303.636 357.703L314.108 355.498L328.335 355.898L339.591 358.453L356.423 366.968L363.31 372.35L374.2 383.582L388.409 404.105Z" fill="white"/>
<path d="M260.488 298.792C233.524 329.832 199.707 346.02 185.48 374.045C168.18 410.594 208.544 458.622 243.324 447.662L252.783 440.492L259.917 433.501L265.877 425.837L271.079 414.945L272.126 405.433L270.985 400.426L267.129 393.895L259.892 387.304L254.996 379.938L252.442 372.154L251.225 362.378L252.28 346.727L256.605 332.829L260.394 326.017V314.452L260.488 298.792Z" fill="white"/>
<path d="M368.052 179.897C373.322 171.177 382.066 163.956 392.377 162.406C404.024 160.49 415.739 164.611 425.709 170.283C420.745 168.153 415.62 166.419 410.384 165.097C392.828 160.754 379.18 165.77 368.01 179.897H368.052Z" fill="black"/>
<path d="M314.245 191.427C300.495 184.291 283.909 178.96 269.972 188.43C265.636 191.388 261.777 194.992 258.53 199.117C261.297 194.535 264.926 190.533 269.214 187.331C283.203 176.916 301.167 182.324 314.262 191.427H314.245Z" fill="black"/>
<path d="M321.933 212.571C339.046 222.16 344.529 214.172 345.269 196.911C356.107 210.979 366.171 216.812 377.375 199.117C368.325 217.119 356.235 213.73 345.312 199.645L346.819 199.176C346.632 202.35 346.087 205.493 345.193 208.544C341.285 221.317 330.719 218.839 321.933 212.571Z" fill="black"/>
<path d="M444.924 272.164C431.668 265.028 416.079 260.744 401.163 264.389C386.689 267.795 373.654 278.942 369.661 293.478C366.307 304.915 370.411 316.471 382.279 320.328C385.795 321.561 389.533 322.031 393.245 321.708C396.969 321.313 400.575 320.169 403.845 318.344C407.25 316.59 409.881 313.746 413.21 311.787C416.478 309.752 420.137 308.424 423.95 307.89C427.762 307.356 431.645 307.628 435.346 308.687C429.774 307.347 423.925 307.751 418.591 309.845C416.853 310.573 415.186 311.46 413.61 312.494C410.383 314.537 407.761 317.45 404.381 319.306C399.307 322.325 393.398 323.635 387.524 323.045C381.7 322.278 375.919 319.936 371.96 315.381C361.173 302.496 369.21 283.387 380.474 273.594C398.728 256.972 425.232 259.876 444.984 272.147L444.924 272.164Z" fill="black"/>
<path d="M396.881 420.012C378.652 382.858 350.667 347.995 304.769 357.439L303.73 357.644C306.65 343.295 308.626 328.622 307.655 314.018C306.923 303.527 304.735 292.644 298.852 283.754C293.122 274.778 282.513 269.371 272.033 272.828C268.84 273.909 265.477 275.383 263.28 278.005C261.102 280.644 260.017 284.018 260.25 287.432C261.131 294.579 261.552 301.776 261.51 308.977C261.317 316.276 260.546 323.549 259.202 330.726C252.979 337.24 251.429 354.774 251.983 363.596C252.527 373.415 255.388 384.034 263.791 389.943C264.941 390.863 266.009 391.88 266.984 392.983C275.873 402.538 273.106 415.558 266.422 425.462C260.011 435.153 251.037 442.953 241.212 449.008C254.571 440.398 270.211 425.854 271.777 409.189C272.373 402.376 269.155 395.76 263.987 391.391C262.684 390.301 260.99 389.1 259.807 387.9C253.464 381.573 251.293 372.299 250.705 363.673C250.186 353.514 251.174 342.954 255.405 333.595C256.044 332.191 256.926 330.911 258.01 329.815L257.78 330.249C258.342 326.698 258.921 323.172 259.304 319.621C260.213 310.741 260.184 301.79 259.219 292.916C259.049 291.12 258.811 289.416 258.649 287.534C258.164 280.449 262.404 274.701 268.934 272.206C285.646 265.002 299.822 277.103 305.075 292.644C312.21 313.235 309.485 335.954 305.331 356.894L304.479 356.043C351.204 346.957 378.933 381.956 396.855 420.012H396.881Z" fill="black"/>
<path d="M242.032 309.141C238.478 311.019 234.519 312 230.5 312C226.481 312 222.522 311.019 218.968 309.141C226.584 310.627 234.416 310.627 242.032 309.141Z" fill="black"/>
<path d="M168.743 392.198C161.745 370.679 177.113 338.728 191.799 323C189.9 325.504 188.104 328.058 186.461 330.715C176.176 347.448 164.623 372.288 168.743 392.198V392.198Z" fill="black"/>
<path d="M405.335 107.105L415.935 108.119C416.656 108.171 417.379 108.039 418.035 107.735C418.691 107.431 419.259 106.965 419.685 106.38C420.111 105.796 420.381 105.112 420.47 104.394C420.558 103.676 420.463 102.948 420.192 102.277C415.344 90.5096 409.313 79.2652 402.193 68.7169C401.69 67.985 400.988 67.4128 400.17 67.0681C399.352 66.7233 398.452 66.6206 397.577 66.7722C396.702 66.9237 395.889 67.323 395.235 67.9228C394.58 68.5226 394.111 69.2977 393.884 70.1561C390.418 83.2531 389.175 93.9232 400.482 104.866C401.801 106.138 403.511 106.927 405.335 107.105V107.105Z" fill="white"/>
<path d="M245.903 134.687L252.766 130.43C253.857 129.743 254.677 128.698 255.085 127.475C255.493 126.252 255.465 124.924 255.005 123.719C251.659 114.974 247.845 107.446 243.332 101.732C242.976 101.289 242.5 100.958 241.961 100.777C241.422 100.597 240.842 100.575 240.291 100.714C239.74 100.852 239.24 101.147 238.851 101.561C238.462 101.976 238.2 102.493 238.096 103.052C236.393 112.87 236.393 122.595 239.229 132.158C239.427 132.82 239.775 133.426 240.245 133.931C240.716 134.436 241.296 134.826 241.942 135.071C242.587 135.316 243.28 135.408 243.967 135.342C244.654 135.275 245.317 135.051 245.903 134.687V134.687Z" fill="white"/>
</svg>
